<?xml version="1.0" encoding="UTF-8" standalone="no"?>
<!-- Created with Inkscape (http://www.inkscape.org/) -->

<svg
   width="66.687859mm"
   height="66.687874mm"
   viewBox="0 0 66.687859 66.687874"
   version="1.1"
   id="svg5"
   inkscape:version="1.1.2 (b8e25be833, 2022-02-05)"
   sodipodi:docname="výkres(1).svg"
   xmlns:inkscape="http://www.inkscape.org/namespaces/inkscape"
   xmlns:sodipodi="http://sodipodi.sourceforge.net/DTD/sodipodi-0.dtd"
   xmlns="http://www.w3.org/2000/svg"
   xmlns:svg="http://www.w3.org/2000/svg">
  <sodipodi:namedview
     id="namedview7"
     pagecolor="#ffffff"
     bordercolor="#cccccc"
     borderopacity="1"
     inkscape:pageshadow="0"
     inkscape:pageopacity="1"
     inkscape:pagecheckerboard="0"
     inkscape:document-units="mm"
     showgrid="false"
     inkscape:snap-global="true"
     inkscape:snap-bbox="true"
     inkscape:bbox-paths="true"
     inkscape:object-paths="true"
     inkscape:zoom="0.35355339"
     inkscape:cx="659.02352"
     inkscape:cy="879.64083"
     inkscape:window-width="1857"
     inkscape:window-height="1057"
     inkscape:window-x="55"
     inkscape:window-y="-8"
     inkscape:window-maximized="1"
     inkscape:current-layer="layer1"
     inkscape:showpageshadow="2"
     inkscape:deskcolor="#d1d1d1" />
  <defs
     id="defs2" />
  <g
     inkscape:label="Vrstva 1"
     inkscape:groupmode="layer"
     id="layer1"
     transform="translate(175.28252,-232.26826)">
    <path
       id="path6769"
       style="fill:#ffcc00;fill-opacity:0.89441;stroke-width:0.264583"
       inkscape:transform-center-x="32.903968"
       inkscape:transform-center-y="7.2664573"
       d="m -172.36379,250.4522 2.92989,-3.04702 c 0,0 3.87661,-4.09191 5.8598,-6.09406 1.75665,-1.77345 5.3483,-5.24159 5.3483,-5.24159 3.26199,-3.26198 11.28563,-4.71323 15.69486,-3.20297 l 7.44815,2.55011 17.01639,6.32335 -28.69136,28.55424 -28.44675,28.5839 -0.0446,-22.68946 -0.0223,-11.34472 -0.0111,-5.67237 c 0,-5.89874 1.99058,-7.7541 2.91876,-8.71939 z"
       sodipodi:nodetypes="ccacccccccccc" />
    <path
       id="path6771"
       style="fill:#d4aa00;fill-opacity:0.89441;stroke-width:0.264583"
       inkscape:transform-center-x="7.2664496"
       inkscape:transform-center-y="32.903961"
       d="m -126.77859,296.03741 3.04703,-2.9299 c 0,0 4.09191,-3.87661 6.09406,-5.85979 1.77345,-1.75666 5.24159,-5.34831 5.24159,-5.34831 3.26197,-3.26199 4.71323,-11.28561 3.20297,-15.69485 l -2.55011,-7.44815 -6.32335,-17.01639 -28.55424,28.69139 -28.58389,28.44673 22.68944,0.0446 11.34473,0.0223 5.67236,0.0111 c 5.89877,0 7.75413,-1.99057 8.71941,-2.91875 z"
       sodipodi:nodetypes="ccaccccccccccc" />
    <path
       style="fill:#a02c2c;stroke:#782121;stroke-width:0.191558;stroke-linecap:butt;stroke-linejoin:miter;stroke-miterlimit:4;stroke-dasharray:none;stroke-opacity:1"
       d="m -175.20451,298.87816 57.12904,-57.12903"
       id="path6773" />
    <path
       id="path6777"
       style="fill:#ffdd55;fill-opacity:0.89441;stroke-width:0.187088"
       inkscape:transform-center-x="16.948455"
       inkscape:transform-center-y="27.649225"
       d="m -138.18392,284.65029 3.01773,-2.95918 c 0,0 4.03808,-3.93045 6.03549,-5.91838 1.76929,-1.76081 5.26822,-5.32167 5.26822,-5.32167 3.26198,-3.262 6.35632,-9.64253 6.32593,-12.57189 l -0.0505,-4.9486 -0.48842,-11.18144 -28.58858,28.65703 -28.54961,28.48102 17.00594,-5.63892 8.50298,-2.81947 4.25148,-1.40973 c 4.42406,-1.47469 6.31322,-3.43145 7.26923,-4.36892 z"
       sodipodi:nodetypes="ccacccccccccc" />
    <path
       id="path6779"
       style="fill:#0066ff;fill-opacity:0.990683;stroke-width:0.264583"
       inkscape:transform-center-x="32.903968"
       inkscape:transform-center-y="7.2664573"
       d="m -172.36379,250.4522 2.92989,-3.04702 c 0,0 3.87661,-4.09191 5.8598,-6.09406 1.75665,-1.77345 5.3483,-5.24159 5.3483,-5.24159 3.26199,-3.26198 11.28563,-4.71323 15.69486,-3.20297 l 7.44815,2.55011 17.01639,6.32335 -28.69136,28.55424 -28.44675,28.5839 -0.0446,-22.68946 -0.0223,-11.34472 -0.0111,-5.67237 c 0,-5.89874 1.99058,-7.7541 2.91876,-8.71939 z"
       sodipodi:nodetypes="ccacccccccccc" />
    <path
       id="path6781"
       style="fill:#0055d4;fill-opacity:0.990683;stroke-width:0.264583"
       inkscape:transform-center-x="7.2664496"
       inkscape:transform-center-y="32.903961"
       d="m -126.77859,296.03741 3.04703,-2.9299 c 0,0 4.09191,-3.87661 6.09406,-5.85979 1.77345,-1.75666 5.24159,-5.34831 5.24159,-5.34831 3.26197,-3.26199 4.71323,-11.28561 3.20297,-15.69485 l -2.55011,-7.44815 -6.32335,-17.01639 -28.55424,28.69139 -28.58389,28.44673 22.68944,0.0446 11.34473,0.0223 5.67236,0.0111 c 5.89877,0 7.75413,-1.99057 8.71941,-2.91875 z"
       sodipodi:nodetypes="ccaccccccccccc" />
    <path
       style="fill:#003380;fill-opacity:0.990683;stroke:#002255;stroke-width:0.191558;stroke-linecap:butt;stroke-linejoin:miter;stroke-miterlimit:4;stroke-dasharray:none;stroke-opacity:1"
       d="m -175.20451,298.87816 57.12904,-57.12903"
       id="path6783" />
    <path
       id="path6785"
       style="fill:#5599ff;fill-opacity:0.990683;stroke-width:0.187088"
       inkscape:transform-center-x="16.948455"
       inkscape:transform-center-y="27.649225"
       d="m -138.18392,284.65029 3.01773,-2.95918 c 0,0 4.03808,-3.93045 6.03549,-5.91838 1.76929,-1.76081 5.26822,-5.32167 5.26822,-5.32167 3.26198,-3.262 6.35632,-9.64253 6.32593,-12.57189 l -0.0505,-4.9486 -0.48842,-11.18144 -28.58858,28.65703 -28.54961,28.48102 17.00594,-5.63892 8.50298,-2.81947 4.25148,-1.40973 c 4.42406,-1.47469 6.31322,-3.43145 7.26923,-4.36892 z"
       sodipodi:nodetypes="ccacccccccccc" />
  </g>
</svg>
