<?xml version="1.0" encoding="UTF-8" standalone="no"?>
<!-- Created with Inkscape (http://www.inkscape.org/) -->

<svg
   width="16mm"
   height="16mm"
   viewBox="0 0 16 16"
   version="1.1"
   id="svg1"
   xml:space="preserve"
   xmlns="http://www.w3.org/2000/svg"
   xmlns:svg="http://www.w3.org/2000/svg"
   class="black"><defs
     id="defs1" /><g
     id="layer1"><g
       id="g47"
       transform="translate(-136.03245,-127.96732)"
       style="fill:none"><path
         style="stroke-width:1.32292;stroke-linecap:butt;stroke-linejoin:miter;stroke-miterlimit:4;stroke-dasharray:none;stroke-opacity:1"
         d="M 138.49775,141.50202 148,131.99977"
         id="path7051-6" /><path
         id="path7057-5"
         style="stroke-width:1.32292;stroke-linecap:round;stroke-linejoin:round;stroke-dasharray:none"
         d="m 138.97024,133.44735 0.48733,-0.50681 c 0,0 0.64479,-0.68061 0.97466,-1.01362 0.29218,-0.29498 0.88959,-0.87183 0.88959,-0.87183 0.54256,-0.54257 1.87713,-0.78395 2.61052,-0.53275 l 1.23884,0.42416 2.83033,1.05176 -4.77223,4.74941 -4.73153,4.75435 -0.008,-3.77392 -0.004,-1.88696 -0.003,-0.94349 c 0,-0.98114 0.33108,-1.28973 0.48547,-1.4503 z" /><path
         id="path7059-7"
         style="stroke-width:1.32292;stroke-linecap:round;stroke-linejoin:round;stroke-dasharray:none"
         d="m 146.55242,141.02953 0.50681,-0.48734 c 0,0 0.6806,-0.64479 1.01362,-0.97466 0.29498,-0.29218 0.87183,-0.88958 0.87183,-0.88958 0.54257,-0.54257 0.78395,-1.87713 0.53275,-2.61052 l -0.42417,-1.23884 -1.05175,-2.83033 -4.74942,4.77223 -4.75435,4.73153 3.77393,0.008 1.88695,0.004 0.9435,0.003 c 0.98114,0 1.28974,-0.33108 1.4503,-0.48546 z" /><path
         style="stroke-width:1.32292;stroke-linecap:butt;stroke-linejoin:miter;stroke-miterlimit:4;stroke-dasharray:none;stroke-opacity:1"
         d="M 138.49775,141.50202 148,131.99977"
         id="path7061-6" /></g></g></svg>
