<?xml version="1.0" encoding="UTF-8" standalone="no"?>
<!-- Created with Inkscape (http://www.inkscape.org/) -->

<svg
   width="4.2580409mm"
   height="4.2672782mm"
   viewBox="0 0 4.2580409 4.2672782"
   version="1.1"
   id="svg5"
   inkscape:version="1.1.2 (b8e25be833, 2022-02-05)"
   sodipodi:docname="výkres(1).svg"
   xml:space="preserve"
   xmlns:inkscape="http://www.inkscape.org/namespaces/inkscape"
   xmlns:sodipodi="http://sodipodi.sourceforge.net/DTD/sodipodi-0.dtd"
   xmlns="http://www.w3.org/2000/svg"
   xmlns:svg="http://www.w3.org/2000/svg"><sodipodi:namedview
     id="namedview7"
     pagecolor="#ffffff"
     bordercolor="#cccccc"
     borderopacity="1"
     inkscape:pageshadow="0"
     inkscape:pageopacity="1"
     inkscape:pagecheckerboard="0"
     inkscape:document-units="mm"
     showgrid="false"
     inkscape:snap-global="true"
     inkscape:snap-bbox="true"
     inkscape:bbox-paths="true"
     inkscape:object-paths="true"
     inkscape:zoom="0.35355339"
     inkscape:cx="659.02352"
     inkscape:cy="879.64083"
     inkscape:window-width="1857"
     inkscape:window-height="1057"
     inkscape:window-x="55"
     inkscape:window-y="-8"
     inkscape:window-maximized="1"
     inkscape:current-layer="layer1"
     inkscape:showpageshadow="2"
     inkscape:deskcolor="#d1d1d1"
     showguides="true"><sodipodi:guide
       position="0.026976321,302.27167"
       orientation="1,0"
       id="guide8"
       inkscape:locked="false" /><sodipodi:guide
       position="4.2603063,302.27167"
       orientation="1,0"
       id="guide9"
       inkscape:locked="false" /></sodipodi:namedview><defs
     id="defs2" /><g
     inkscape:label="Vrstva 1"
     inkscape:groupmode="layer"
     id="layer1"
     transform="translate(165.25927,-274.94823)"><path
       id="path5"
       style="fill:none;fill-opacity:0.990683;stroke:#ffffff;stroke-width:0.529167;stroke-linejoin:round;stroke-dasharray:none"
       inkscape:transform-center-x="1.8322724"
       inkscape:transform-center-y="0.40460111"
       d="m -164.8318,276.22739 0.16314,-0.16965 c 0,0 0.21585,-0.22785 0.32628,-0.33933 0.0978,-0.0987 0.29779,-0.29184 0.29779,-0.29184 0.18163,-0.18163 0.62839,-0.26244 0.87389,-0.17834 l 0.41472,0.14198 0.94748,0.35209 -1.59754,1.5899 -1.58393,1.59156 -0.003,-1.26336 -9e-4,-0.63168 -8e-4,-0.31583 c 0,-0.32844 0.11084,-0.43175 0.16252,-0.4855 z"
       sodipodi:nodetypes="ccacccccccccc"
       inkscape:export-filename="path5.svg"
       inkscape:export-xdpi="149.12961"
       inkscape:export-ydpi="149.12961" /><path
       id="path6"
       style="fill:none;fill-opacity:0.990683;stroke:#ffffff;stroke-width:0.529167;stroke-linejoin:round;stroke-dasharray:none"
       inkscape:transform-center-x="0.40459665"
       inkscape:transform-center-y="1.832273"
       d="m -161.79536,275.76517 -1.58978,1.59721 -1.59164,1.5842 1.26328,0.003 0.63164,4.6e-4 0.31582,9e-4 c 0.32844,0 0.43158,-0.11087 0.48533,-0.16255 l 0.16999,-0.16303 c 0,0 0.22756,-0.21607 0.33904,-0.32649 0.0987,-0.0978 0.29213,-0.29771 0.29213,-0.29771 0.18163,-0.18162 0.26245,-0.6281 0.17835,-0.87361 l -0.14212,-0.41475 z" /></g></svg>
